<svg width="28" height="19" viewBox="0 0 28 19" fill="none" xmlns="http://www.w3.org/2000/svg">
<path d="M17.5094 10.6211L15.2463 12.8919C14.3285 13.8129 12.7137 13.8327 11.7762 12.8919L9.51289 10.6211L1.38428 18.7761C1.68685 18.916 2.02046 18.9995 2.37513 18.9995H24.6473C25.002 18.9995 25.3355 18.9161 25.638 18.7761L17.5094 10.6211Z" fill="white"/>
<path d="M24.6472 0H2.37502C2.02035 0 1.68675 0.0834944 1.38428 0.223408L10.0703 8.93822C10.0709 8.9388 10.0715 8.93891 10.0721 8.93949C10.0727 8.94007 10.0728 8.94086 10.0728 8.94086L12.8971 11.7745C13.1971 12.0745 13.8252 12.0745 14.1252 11.7745L16.9489 8.94133C16.9489 8.94133 16.9496 8.94007 16.9502 8.93949C16.9502 8.93949 16.9515 8.9388 16.9521 8.93822L25.6378 0.223355C25.3354 0.0833889 25.0019 0 24.6472 0Z" fill="white"/>
<path d="M0.252594 1.33105C0.0960554 1.64762 0 1.99901 0 2.37542V16.6254C0 17.0018 0.0959499 17.3532 0.252541 17.6698L8.39524 9.50067L0.252594 1.33105Z" fill="white"/>
<path d="M26.7695 1.33008L18.627 9.4998L26.7695 17.669C26.9261 17.3524 27.0221 17.001 27.0221 16.6245V2.37455C27.0221 1.99803 26.9261 1.64664 26.7695 1.33008Z" fill="white"/>
</svg>
